<?xml version="1.0" standalone="no"?><!DOCTYPE svg PUBLIC "-//W3C//DTD SVG 1.1//EN" "http://www.w3.org/Graphics/SVG/1.1/DTD/svg11.dtd"><svg t="1741448446065" class="icon" viewBox="0 0 1130 1024" version="1.1" xmlns="http://www.w3.org/2000/svg" p-id="4421" id="mx_n_1741448446066" xmlns:xlink="http://www.w3.org/1999/xlink" width="220.703125" height="200"><path d="M1130.60667 178.147701a70.13689 70.13689 0 0 0-21.041067-49.797192L1003.658899 22.443805a70.13689 70.13689 0 0 0-91.177957-7.715058L666.300457 190.070973a359.802247 359.802247 0 0 0-99.594384-14.027379 388.558372 388.558372 0 0 0-388.558372 388.558372 406.092594 406.092594 0 0 1-176.744963 335.254336 1040.130082 1040.130082 0 0 0 494.465076 124.142295 459.396631 459.396631 0 0 0 459.396631-459.396631 392.065216 392.065216 0 0 0-13.326009-99.594384l176.744963-247.583222a70.13689 70.13689 0 0 0 11.923271-39.276659zM494.465076 920.196a931.417902 931.417902 0 0 1-310.005055-52.602668 509.895192 509.895192 0 0 0 98.191647-300.887259 282.651668 282.651668 0 0 1 565.303335 0 350.684451 350.684451 0 0 1-353.489927 351.38582z m396.27343-565.303335a393.467954 393.467954 0 0 0-112.920393-112.920394l171.835381-123.440927 63.82457 63.824571z" fill="#40B474" p-id="4422"></path></svg>