<?xml version="1.0" standalone="no"?><!DOCTYPE svg PUBLIC "-//W3C//DTD SVG 1.1//EN" "http://www.w3.org/Graphics/SVG/1.1/DTD/svg11.dtd"><svg t="1741435506441" class="icon" viewBox="0 0 1029 1024" version="1.1" xmlns="http://www.w3.org/2000/svg" p-id="4300" xmlns:xlink="http://www.w3.org/1999/xlink" width="200.9765625" height="200"><path d="M919.656438 0h-815.287403c-57.542687 0-104.356299 46.849274-104.356299 104.437811v815.20589c0 57.542687 46.813612 104.356299 104.356299 104.356299h815.287403c57.542687 0 104.356299-46.813612 104.356298-104.356299V104.437811c0-57.588537-46.813612-104.437811-104.356298-104.437811zM534.938109 978.149254v-48.39801h-45.850746v48.39801h-384.718328c-7.713114 0-15.069612-1.538547-21.819861-4.26412l49.411821-49.411821-32.421572-32.416477-49.411821 49.411821a58.148935 58.148935 0 0 1-4.264119-21.824956V534.925373h48.39801v-45.850746h-48.39801v-384.636816c0-7.738587 1.543642-15.120557 4.279403-21.891184l49.396537 49.396537 32.421572-32.416477-49.411821-49.406727a58.016478 58.016478 0 0 1 21.814766-4.269214H489.087363v58.587065h45.850746V45.850746h384.718329c7.713114 0 15.064517 1.538547 21.814766 4.269214l-49.411821 49.411821 32.421572 32.416478 49.396538-49.401632c2.735761 6.770627 4.279403 14.147502 4.279403 21.886089V489.074627h-58.587065v45.850746h58.587065v384.718328c0 7.718209-1.538547 15.069612-4.26412 21.819861l-49.411821-49.411821-32.421572 32.416478 49.416916 49.416915a58.143841 58.143841 0 0 1-21.819861 4.26412H534.938109z" p-id="4301" fill="#2c2c2c"></path><path d="M185.962985 489.074627h91.701493v45.850746h-91.701493zM736.17194 489.074627h91.701493v45.850746h-91.701493zM489.087363 746.348259h45.850746v91.701492h-45.850746zM489.087363 196.139303h45.850746v91.701493h-45.850746zM387.69608 420.094726l-72.046806-72.041711 32.421572-32.421572 72.046806 72.046806zM636.334488 603.895085l72.046806 72.046806-32.416478 32.421572-72.046806-72.046806zM780.433194 747.988697l72.046806 72.046805-32.421572 32.421573-72.046806-72.046806zM561.134169 534.925373h83.336279v-45.850746h-83.336279l-26.19606-26.19606V379.542289h-45.850746v83.336278l-28.0199 28.014806V489.074627h-91.701493v45.850746h91.701493v-1.818746l29.843741 29.838647H489.087363v91.701492h45.850746v-91.701492h-1.82384l28.0199-28.019901z m-8.365214-14.585632l-8.339741-8.339741 8.339741-8.339741v16.679482z m-32.421572-49.09596l-8.334647 8.334647-8.334646-8.334647h16.669293z m-59.27992 22.232518l18.523701 18.523701-18.523701 18.523701v-37.047402z m32.421572 69.468975l18.523701-18.523702 18.523702 18.523702h-37.047403zM276.02404 243.467463l-32.426667 32.421572-72.046806-72.056995 32.426667-32.421572zM852.48 204.005254l-72.041711 72.046806-32.421573-32.421572 72.046806-72.046806zM171.525095 819.984557l72.046805-72.046806 32.421573 32.421572-72.046806 72.046806zM315.618706 675.890945l72.051901-72.046806 32.421572 32.421572-72.046806 72.046806zM708.391483 348.10396l-72.046806 72.046806-32.416478-32.421572 72.046806-72.046806z" p-id="4302" fill="#2c2c2c"></path></svg>