<?xml version="1.0" standalone="no"?><!DOCTYPE svg PUBLIC "-//W3C//DTD SVG 1.1//EN" "http://www.w3.org/Graphics/SVG/1.1/DTD/svg11.dtd"><svg t="1741435573583" class="icon" viewBox="0 0 1024 1024" version="1.1" xmlns="http://www.w3.org/2000/svg" p-id="5538" xmlns:xlink="http://www.w3.org/1999/xlink" width="200" height="200"><path d="M675.67 530.1l44.14 22.73a110.93 110.93 0 0 1 97.57-58.44c61.47 0 111.14 50.33 111.14 112.22s-49.67 112.21-111.14 112.21-111.14-50.33-111.14-112.21v-3.37l-48.15-24.79A175.66 175.66 0 0 1 582 652.37l21.62 76.68h2.26C667.31 729 717 779.36 717 841.24s-49.69 112.22-111.17 112.22-111.14-50.33-111.14-112.22a112.37 112.37 0 0 1 59.5-99.39l-20.81-73.78a173 173 0 0 1-133.73-33.68l-94 81.69a112.85 112.85 0 0 1 8.68 43.55c0 61.89-49.67 112.22-111.14 112.22S92 821.52 92 759.63s49.66-112.22 111.14-112.22a110.1 110.1 0 0 1 72.48 27.14l88.55-76.9a177.69 177.69 0 0 1-10.28-190.43l-109.55-80.57a109.86 109.86 0 0 1-61.6 18.8c-61.48 0-111.15-50.33-111.15-112.22S121.26 121 182.74 121s111.14 50.33 111.14 112.22A112.48 112.48 0 0 1 279.21 289l105.94 77.9A172.7 172.7 0 0 1 606 351l37.41-47.38a112.45 112.45 0 0 1-28-74.42c0-61.89 49.67-112.22 111.14-112.22s111.14 50.33 111.14 112.22-49.58 112.17-111.05 112.17a110 110 0 0 1-41.64-8.13l-42.18 53.43a176.44 176.44 0 0 1 36.43 107.72 178.73 178.73 0 0 1-3.58 35.71z m-170.51 74c59.43 0 107.79-49 107.79-109.67s-48.36-109.71-107.79-109.71-107.79 49-107.79 109.67 48.36 109.67 107.79 109.67z m221.48-323.9c27.49 0 49.93-22.75 49.93-51s-22.44-51-49.93-51-49.93 22.75-49.93 51 22.44 50.96 49.93 50.96z m-543.9 4.08c27.48 0 49.93-22.75 49.93-51s-22.45-51-49.93-51-49.94 22.75-49.94 51 22.45 50.96 49.94 50.96z m634.64 373.34c27.49 0 49.93-22.75 49.93-51s-22.44-51-49.93-51-49.93 22.75-49.93 51 22.44 51 49.93 51zM605.83 892.25c27.49 0 49.94-22.75 49.94-51s-22.45-51-49.94-51-49.93 22.74-49.93 51 22.45 51 49.93 51z m-402.69-81.61c27.49 0 49.93-22.75 49.93-51s-22.44-51-49.93-51-49.94 22.75-49.94 51 22.45 51 49.94 51z" fill="#2c2c2c" p-id="5539"></path></svg>