<?xml version="1.0" standalone="no"?><!DOCTYPE svg PUBLIC "-//W3C//DTD SVG 1.1//EN" "http://www.w3.org/Graphics/SVG/1.1/DTD/svg11.dtd"><svg t="1741448523209" class="icon" viewBox="0 0 1025 1024" version="1.1" xmlns="http://www.w3.org/2000/svg" p-id="11638" xmlns:xlink="http://www.w3.org/1999/xlink" width="200.1953125" height="200"><path d="M642.048 896.512h-256c-17.408 0-32.256-14.848-32.256-32.256s14.848-32.256 32.256-32.256h256c17.408 0 32.256 14.848 32.256 32.256-1.536 17.92-14.848 32.256-32.256 32.256zM577.536 1024H450.56c-17.408 0-32.256-14.848-32.256-32.256s14.848-32.256 32.256-32.256h127.488c17.408 0 32.256 14.848 32.256 32.256-0.512 17.408-14.848 32.256-32.768 32.256z m52.736-256H396.288c-3.072 0-7.168 0-10.24-1.536-162.304-53.76-271.872-203.264-271.872-372.736 0-216.576 178.688-393.216 399.36-393.216s399.36 177.152 399.36 393.216c0 169.472-109.568 318.976-271.872 372.736-3.584 1.536-7.68 1.536-10.752 1.536z m-227.84-64.512h223.744c134.656-46.592 223.744-171.008 223.744-310.272 0-181.248-150.528-329.216-334.848-329.216s-335.36 148.48-335.36 329.728c-1.024 140.288 88.064 264.704 222.72 309.76z" fill="#5BC2A4" p-id="11639"></path><path d="M728.576 289.792c-10.24 0-20.48-5.632-26.112-14.848-36.352-55.808-96.768-92.16-162.304-99.328-8.704-1.536-15.872-5.632-22.016-11.776-6.144-6.144-7.168-14.848-7.168-23.552 1.536-8.704 4.608-15.872 11.776-22.016 7.168-5.632 14.848-7.168 23.552-7.168 84.992 8.704 162.304 55.808 208.896 127.488 5.632 10.24 7.168 22.016 1.536 32.256-6.656 11.776-16.896 18.944-28.16 18.944zM880.64 120.32c-14.848 0-27.648-10.24-30.72-25.088-3.072-14.848 4.608-29.184 17.408-36.352l112.64-55.808c15.872-7.168 35.328-1.536 42.496 14.848 7.168 15.872 1.536 35.328-14.848 42.496l-112.64 55.808c-5.632 2.56-10.24 4.096-14.336 4.096z m112.64 109.568h-56.832c-17.408 0-32.256-14.848-32.256-32.256s14.848-32.256 32.256-32.256H993.28c17.408 0 32.256 14.848 32.256 32.256s-14.848 32.256-32.256 32.256zM146.432 120.32c-4.608 0-10.24-1.536-14.848-3.072L18.944 61.44C3.072 54.272-3.072 35.328 4.096 18.944S30.72-2.56 46.592 4.608l112.64 55.808c13.312 5.632 20.48 22.016 17.408 36.352-2.56 13.312-15.872 23.552-30.208 23.552zM89.088 229.888H32.256C14.848 229.888 0 215.04 0 197.632s14.848-32.256 32.256-32.256h56.832c17.408 0 32.256 14.848 32.256 32.256s-13.312 32.256-32.256 32.256z" fill="#5BC2A4" p-id="11640"></path></svg>