<?xml version="1.0" standalone="no"?><!DOCTYPE svg PUBLIC "-//W3C//DTD SVG 1.1//EN" "http://www.w3.org/Graphics/SVG/1.1/DTD/svg11.dtd"><svg t="1741430199656" class="icon" viewBox="0 0 1024 1024" version="1.1" xmlns="http://www.w3.org/2000/svg" p-id="25996" xmlns:xlink="http://www.w3.org/1999/xlink" width="200" height="200"><path d="M409.6 71.68c130.068 0 235.52 105.452 235.52 235.52 0 81.408-41.288 153.15-104.08 195.461a347.566 347.566 0 0 1 137.421 92.672 30.48 30.48 0 0 1 6.615 11.571 30.72 30.72 0 0 1-51.67 31.232A285.86 285.86 0 0 0 420.29 542.72a285.86 285.86 0 0 0-213.095 95.416 31.74 31.74 0 0 1-4.608 4.199l-3.789 4.464a285.491 285.491 0 0 0-65.618 176.23l-0.061 6.411v92.16a30.72 30.72 0 0 1-61.297 2.95l-0.143-2.95v-92.16c0-144.957 88.576-269.21 214.569-321.597A235.274 235.274 0 0 1 174.08 307.2c0-130.068 105.452-235.52 235.52-235.52z m0 61.44a174.08 174.08 0 1 0 0 348.16 174.08 174.08 0 0 0 0-348.16z m366.797 444.047a40.96 40.96 0 0 1 56.852-11.059l101.868 68.71a40.96 40.96 0 0 1 11.059 56.874l-137.42 203.735-116.143 52.142a40.96 40.96 0 0 1-57.713-38.667l4.056-128 137.42-203.735z m39.465 51.344l-116.08 172.073-2.458 77.516 70.246-31.539 116.203-172.237-67.911-45.813z" fill="#FCBB34" p-id="25997"></path></svg>