<?xml version="1.0" standalone="no"?><!DOCTYPE svg PUBLIC "-//W3C//DTD SVG 1.1//EN" "http://www.w3.org/Graphics/SVG/1.1/DTD/svg11.dtd"><svg t="1741430068378" class="icon" viewBox="0 0 1024 1024" version="1.1" xmlns="http://www.w3.org/2000/svg" p-id="21258" xmlns:xlink="http://www.w3.org/1999/xlink" width="200" height="200"><path d="M227.7376 596.1728c64.9216-52.6336 159.744-76.5952 247.3984 0 81.92 72.2944 75.5712 191.488-7.9872 277.504a286.72 286.72 0 0 1-291.84 73.5232C76.3904 918.1184 20.48 817.9712 20.48 817.9712a240.4352 240.4352 0 0 0 81.92-48.128c40.96-41.984 54.8864-116.5312 125.3376-173.6704z" fill="#F4D240" p-id="21259"></path><path d="M476.16 599.8592C389.12 520.8064 294.7072 543.1296 228.9664 593.92s-81.92 113.2544-115.0976 155.8528l4.096-1.6384A61.44 61.44 0 0 1 143.36 747.52a343.4496 343.4496 0 0 1 86.6304-107.7248c65.9456-51.6096 160.9728-73.9328 247.3984 5.12a167.936 167.936 0 0 1 53.6576 97.0752 167.3216 167.3216 0 0 0-54.8864-142.1312z" fill="#FFFFFF" p-id="21260"></path><path d="M404.0704 548.2496L886.5792 94.4128a69.4272 69.4272 0 0 1 96.4608 1.6384 69.4272 69.4272 0 0 1 1.4336 96.6656L530.8416 675.84" fill="#5CBDFF" p-id="21261"></path><path d="M413.9008 548.6592l100.7616-94.6176 107.52 108.3392-94.8224 103.2192-113.4592-116.9408z" fill="#FF457A" p-id="21262"></path><path d="M909.1072 129.2288a69.2224 69.2224 0 0 1 91.7504-2.6624 69.0176 69.0176 0 0 0-114.2784-32.1536L404.0704 548.2496l28.8768 28.8768z" fill="#FFFFFF" p-id="21263"></path><path d="M997.5808 81.92a89.4976 89.4976 0 0 0-125.1328-1.8432l-480.256 450.56a207.872 207.872 0 0 0-177.5616 49.152A352.256 352.256 0 0 0 126.976 696.32a262.7584 262.7584 0 0 1-39.7312 60.0064A220.7744 220.7744 0 0 1 13.9264 798.72a20.48 20.48 0 0 0-11.264 29.4912c2.4576 4.3008 61.44 107.7248 166.912 138.8544a333.824 333.824 0 0 0 94.4128 13.9264 300.6464 300.6464 0 0 0 217.9072-92.16A235.52 235.52 0 0 0 552.96 716.8a187.8016 187.8016 0 0 0-4.096-31.5392l450.56-478.8224A89.4976 89.4976 0 0 0 997.5808 81.92zM452.4032 860.16a266.24 266.24 0 0 1-271.36 67.3792 264.192 264.192 0 0 1-129.8432-99.9424 232.2432 232.2432 0 0 0 65.1264-43.2128A295.3216 295.3216 0 0 0 163.84 714.9568a313.9584 313.9584 0 0 1 77.6192-102.4c34.6112-28.0576 125.3376-84.1728 220.9792 0A146.432 146.432 0 0 1 512 718.6432 195.1744 195.1744 0 0 1 452.4032 860.16z m36.2496-278.528a234.2912 234.2912 0 0 0-52.8384-35.4304l73.9328-69.632 92.5696 92.5696-67.7888 72.4992a193.9456 193.9456 0 0 0-45.8752-59.8016zM969.728 178.5856L630.3744 539.4432l-90.7264-90.7264L901.12 109.3632a48.9472 48.9472 0 0 1 69.2224 69.2224z" fill="#37348F" p-id="21264"></path></svg>